# 3ds Max Wavefront OBJ Exporter v0.97b - (c)2007 guruware
# File Created: 01.11.2016 23:38:16

mtllib mappedcube.mtl

#
# object Box001
#

v  -5.000000 -5.000000 -5.000000
v  -5.000000 -5.000000 5.000000
v  5.000000 -5.000000 -5.000000
v  5.000000 -5.000000 5.000000
v  5.000000 5.000000 5.000000
v  -5.000000 5.000000 5.000000
v  5.000000 5.000000 -5.000000
v  -5.000000 5.000000 -5.000000
# 8 vertices

vn 0.000000 1.000000 -0.000000
vn 0.000000 -1.000000 -0.000000
vn 0.000000 0.000000 -1.000000
vn -1.000000 0.000000 -0.000000
vn 0.000000 0.000000 1.000000
vn 1.000000 0.000000 -0.000000
# 6 vertex normals

vt 0.250122 0.333496 -5.000000
vt 0.250122 0.001790 -5.000000
vt 0.499878 0.333496 -5.000000
vt 0.499878 0.001790 -5.000000
vt 0.499142 0.667439 5.000000
vt 0.251291 0.667439 5.000000
vt 0.499142 0.995894 5.000000
vt 0.251291 0.995894 5.000000
vt 0.499878 0.666829 5.000000
vt 0.250122 0.666829 5.000000
vt 0.749878 0.333496 -5.000000
vt 0.500000 0.333496 -5.000000
vt 0.749878 0.665156 5.000000
vt 0.500000 0.665156 5.000000
vt 0.998657 0.333496 -5.000000
vt 0.998657 0.665163 5.000000
vt 0.749878 0.665163 5.000000
vt 0.249694 0.333822 -5.000000
vt 0.001099 0.333822 -5.000000
vt 0.249939 0.664714 5.000000
vt 0.001588 0.664714 5.000000
# 21 texture coords

g Box001
usemtl Material__61
f 1/1/1 2/2/1 3/3/1 
f 4/4/1 3/3/1 2/2/1 
f 5/5/2 6/6/2 7/7/2 
f 8/8/2 7/7/2 6/6/2 
f 4/3/3 2/1/3 5/9/3 
f 6/10/3 5/9/3 2/1/3 
f 3/11/4 4/12/4 7/13/4 
f 5/14/4 7/13/4 4/12/4 
f 1/15/5 3/11/5 8/16/5 
f 7/17/5 8/16/5 3/11/5 
f 2/18/6 1/19/6 6/20/6 
f 8/21/6 6/20/6 1/19/6 
# 12 faces

