# 3ds Max Wavefront OBJ Exporter v0.97b - (c)2007 guruware
# File Created: 07.12.2016 23:47:03

mtllib octahedron.mtl

#
# object Pyramid001
#

v  -0.47144318 200.00000000 -0.04047394
v  -50.47144318 100.00000000 49.95952606
v  49.52855682 100.00000000 49.95952606
v  49.52855682 100.00000000 -50.04047394
v  -50.47144318 100.00000000 -50.04047394
v  -0.47144318 0.00000000 -0.04048904
# 6 vertices

vn 0.00000000 0.44721362 0.89442724
vn 0.89442724 0.44721362 0.00000003
vn 0.00000000 0.44721362 -0.89442724
vn -0.89442724 0.44721362 0.00000003
vn 0.00000000 -0.44721350 -0.89442730
vn 0.89442724 -0.44721362 -0.00000003
vn 0.00000000 -0.44721371 0.89442712
vn -0.89442724 -0.44721362 -0.00000003
# 8 vertex normals

vt 0.50000000 1.00000000 0.00000000
vt 0.00000000 0.00000000 0.00000000
vt 1.00000000 0.00000000 0.00000000
# 3 texture coords

g Pyramid001
usemtl wire_148177027
s off
f 1/1/1 2/2/1 3/3/1 
f 1/1/2 3/2/2 4/3/2 
f 1/1/3 4/2/3 5/3/3 
f 1/1/4 5/2/4 2/3/4 
f 6/1/5 5/2/5 4/3/5 
f 6/1/6 4/2/6 3/3/6 
f 6/1/7 3/2/7 2/3/7 
f 6/1/8 2/2/8 5/3/8 
# 8 faces

